<svg xmlns="http://www.w3.org/2000/svg"><defs><style>.cls-1{fill:#fff;fill-rule:evenodd}</style></defs><symbol id="icon-menu-cross" viewBox="0 0 23.867 23.867"><path fill="#FFF" d="M15.087 11.933l8.56-8.559a.75.75 0 0 0 0-1.061L21.554.22a.747.747 0 0 0-1.06 0l-8.561 8.56L3.373.22a.771.771 0 0 0-1.061 0L.22 2.313a.75.75 0 0 0 0 1.061l8.56 8.559-8.56 8.559a.751.751 0 0 0 0 1.062l2.093 2.094a.744.744 0 0 0 1.06 0l8.561-8.56 8.56 8.56a.746.746 0 0 0 1.06 0l2.093-2.094a.751.751 0 0 0 0-1.062l-8.56-8.559z"/></symbol><symbol id="icon-menu-ham" viewBox="0 0 30 19"><path class="cls-1" d="M0 0h30v3H0V0zm0 8h30v3H0V8zm0 8h30v3H0v-3z"/></symbol></svg>